PathFileType	4	(X/Y/Z)	trial_0_0-299.trc
DataRate	CameraRate	NumFrames	NumMarkers	Units	OrigDataRate	OrigDataStartFrame	OrigNumFrames
60	60	9	21	m	60	186	299
Frame#	Time	RHip			RKnee			RAnkle			RBigToe			RSmallToe			RHeel			LHip			LKnee			LAnkle			LBigToe			LSmallToe			LHeel			Neck			Head			Nose			RShoulder			RElbow			RWrist			LShoulder			LElbow			LWrist		
		X1	Y1	Z1	X2	Y2	Z2	X3	Y3	Z3	X4	Y4	Z4	X5	Y5	Z5	X6	Y6	Z6	X7	Y7	Z7	X8	Y8	Z8	X9	Y9	Z9	X10	Y10	Z10	X11	Y11	Z11	X12	Y12	Z12	X13	Y13	Z13	X14	Y14	Z14	X15	Y15	Z15	X16	Y16	Z16	X17	Y17	Z17	X18	Y18	Z18	X19	Y19	Z19	X20	Y20	Z20	X21	Y21	Z21
187	3.1166666666666667	1.4494898638579772	1.3352365902483943	0.4179945548598882	2.017737521461871	1.4081114356663202	0.3934071494805678	2.2177353879960773	0.981263111564409	0.34321216726802717	2.4666756418322846	1.1582427688093788	0.3098816514093644	2.4694584714208396	1.1607301115059727	0.40311813854929524	2.2018170179747742	0.9204305759211194	0.33209598775805826	1.329530226113383	1.2192697808789483	0.1708323059065964	1.8017192959541197	1.1270851265282174	0.11717916901499269	2.15077792235411	0.9347528884067448	0.14007287314567698	2.486847057830493	1.2295514001886274	0.14194968387214155	2.319344197746756	1.016584010855252	0.07883687164546674	2.1193615773524006	0.7905190112994699	0.17612364304607372	0.7563165324545986	1.2761535026746857	0.4607110926412863	0.4019773839370553	1.6508132627471033	0.5244064692761047	0.6194289363272756	1.707546752359795	0.3901938985365445	0.9217911396083525	1.3316930424490165	0.6134358193901581	1.4366426283796219	1.7069423803241637	0.6445331234171552	1.8842339517520208	2.2008488379073188	0.4109175372287755	0.736554451273463	1.0356427386306637	0.27204401512318827	0.9423843938928644	0.9677895733934482	0.1277078743361757	1.0748317578753082	0.8752144984674954	-0.06409124538270072
188	3.1333333333333333	1.447314852545265	1.2993100211234363	0.420113969427779	2.003885270506054	1.3735178506450765	0.3799027879268526	2.2261537215412623	0.9766769542368924	0.34435968701469005	2.4684918669331473	1.1475535696677766	0.31249396949631225	2.4611807309602516	1.1472218899789772	0.4055858031830012	2.2019231173874916	0.908835623515389	0.33275910593603275	1.3303005780855928	1.2238250048188246	0.17013408261206156	1.8055161986786048	1.1208852676626757	0.1183642035764538	2.153571433565497	0.9310971247827836	0.14138679433252968	2.495004793027239	1.2373716106339596	0.143857386924783	2.3575696626806244	1.0658801016893222	0.08608724152568692	2.107204642346644	0.7723863728416165	0.18018122367828562	0.7613028436738905	1.2681626086425493	0.44857492291158907	0.40323634452273466	1.6857061381562874	0.506892320957812	0.6308535621685928	1.7389395040773532	0.38624575102416714	0.9172635344373132	1.2722204725305155	0.6036794886340687	1.4132549375585808	1.6075085434025076	0.6536462980016539	1.8850108510270214	2.122701322732127	0.46489869269798184	0.7425320383631587	1.0388557647157404	0.27099546670572805	0.9428364337496146	0.9729951536572903	0.1262328333727794	1.07166401151705	0.8970604533080633	-0.06970526583869373
189	3.15	1.4451153581169074	1.281869117222195	0.42288482815625117	2.010697442020001	1.3504459585160316	0.38322189262209877	2.2330960803806446	0.9771958866702061	0.3453529390966394	2.4642413754272647	1.1483530280086547	0.31423704065118013	2.4424880100486184	1.12522700925715	0.4105168223811127	2.2014955010790183	0.9053991607600409	0.3328262562875032	1.3296557789364825	1.219680667945156	0.17124973378116587	1.831272345109308	1.1397457649836193	0.11653263103139645	2.1516631498369923	0.9355406385671355	0.14143124549509756	2.493302458203673	1.2402055065957696	0.14441905578334954	2.354069193489291	1.0592803425726227	0.08763693526622708	2.110207206473108	0.7908494594625617	0.1772860504835461	0.7599309835092065	1.3072198917957725	0.45626253076821527	0.4008972561155121	1.6962462586711042	0.4922906255200783	0.6389738852619865	1.7203198925520533	0.3760551992441081	0.9136635315957178	1.3150392351374638	0.6154381075922934	1.402306236668889	1.57649473007221	0.671990766666328	1.850105255071119	1.9849730487253197	0.49455641484913926	0.7347935953655895	1.039776452732173	0.2711334612846286	0.9442880092679853	0.9902450960205873	0.12094367500446586	1.0756772948135216	0.9330743648573109	-0.06725206588785473
190	3.1666666666666665	1.451004081245301	1.2777303539170368	0.42373771790464515	1.9957706338369665	1.3131282263413133	0.3896395136836826	2.214600519667125	0.9484169185812273	0.3374894494668894	2.4731343198224303	1.1642261955742792	0.32382008811882845	2.4464119136216547	1.1330045567439273	0.40926313277732035	2.2016254843203655	0.9065099157640097	0.3325231510056543	1.3280622702968863	1.2085987339508035	0.17360713917157528	1.8543393966663988	1.1940976309987095	0.11835748435836506	2.1482566829701946	0.9177045926810262	0.14675408121191258	2.4950760369868252	1.2410048792982933	0.14442792919887082	2.353436049656005	1.049902610200238	0.09240408539731867	2.1019547222706034	0.7799651967939497	0.18039683635489065	0.7627555734445228	1.3247276311773382	0.4557462049886374	0.40335886664069914	1.671747168572293	0.49323784784541846	0.6357963604056185	1.7254065537925953	0.37734353863580355	0.902198064096311	1.3405235771864819	0.6162648371071641	1.3649518889612082	1.5116273317401625	0.6730822548341195	1.8240548109303254	1.9458931935496684	0.5174506159899561	0.7341222588109935	1.0389870367423588	0.2713285902548166	0.9445043688516552	0.9923655971316858	0.12035802817205019	1.0980627620622954	1.0304064099089225	-0.08319731723363934
191	3.183333333333333	1.4374106471326307	1.252423120963275	0.4268778089043631	1.9850932439959075	1.3011164147592928	0.39139504978566486	2.2132382951502096	0.9440788757626515	0.33974802591463926	2.4621845177987622	1.1576570764249638	0.3258551748206098	2.4431994465393685	1.127638682173928	0.4112123102941568	2.1793189103975346	0.8700421117733046	0.32789091304747153	1.3260896659035717	1.2022213628130336	0.1755502299493603	1.8401190957870484	1.1679570418793712	0.12310904693005141	2.147429014624889	0.9163594018600367	0.14726649998422853	2.4886452712860847	1.2472458208728066	0.14296553539991655	2.3455731947180203	1.0557803371366887	0.09146582586455891	2.0945699457477414	0.7774794267524812	0.18171442176719843	0.7513998842854355	1.2926417969951784	0.4471405464710486	0.40177595187192994	1.677663079595627	0.4790784091146221	0.6380373687510835	1.7670940457348479	0.3758923724338179	0.8970745691228457	1.3226686889676493	0.6179492048713273	1.359576285836196	1.4792795266347765	0.6774658028051164	1.8987751243819002	2.151549178543181	0.5808443676294477	0.7315260312096685	1.021528419711015	0.260174333426848	0.9399014962848333	1.0067023399229504	0.1156257580026273	1.0960240321906078	1.0833698135653393	-0.0855882692102521
192	3.2	1.4191355402910857	1.244612174179823	0.4271702525354494	1.964628498359556	1.261097196759092	0.3967047980866712	2.195541880909598	0.9352791738769205	0.339677786091335	2.4545754010468075	1.135710333830509	0.32951997758917706	2.428685434630649	1.0995856628935579	0.4149870310814954	2.1952141894017396	0.8970635019603995	0.3353168257620132	1.3194352785022732	1.1985710418405888	0.17623274183639936	1.8181442602231654	1.1341970942584352	0.1294129348453205	2.1475405866547934	0.9172220421402882	0.1471307145939777	2.4781344284500344	1.24315075352704	0.1445999604401744	2.336516601807574	1.0533787375503638	0.09292514244045058	2.1011178839384375	0.7765264670239285	0.18100816908552453	0.7515000495310188	1.2881592792092122	0.4474961882197054	0.40264417432692173	1.6284135738675232	0.46515167496029575	0.6379149937872982	1.7649032447284967	0.37587797892947034	0.8967872348949585	1.3155758999843086	0.6184882876617169	1.3300887589237362	1.461915551080662	0.6775751920117027	1.8700452110218606	2.054498434557817	0.6179067555743614	0.7199762080747188	1.0302411037538703	0.2601561237078602	0.9337409607235517	1.0083833458765674	0.11596397410972835	1.1139924131023242	1.194163548749697	-0.08696360529406612
193	3.216666666666667	1.4142626734325738	1.2542138181225475	0.4281752586322255	1.9325691907278013	1.229990819137484	0.40347152273859505	2.2017114833842566	0.9375238754988731	0.3405673755251338	2.4629240710179774	1.1447976954487293	0.32737867646451263	2.435434057677788	1.112814080145829	0.41399219244670193	2.179852929317259	0.8754846272036377	0.3264228452862904	1.324352205148367	1.1970389468046663	0.17735572423384074	1.8077646025812506	1.1417422640192252	0.13043683735509362	2.1450350182378903	0.8983903290454409	0.1504498226111905	2.486560049703306	1.2409039090468044	0.14363576503457307	2.3443155278201777	1.0576388173291125	0.09188267889746143	2.118815779849195	0.7866362018149744	0.1750437699142469	0.7526038465567242	1.304432203950204	0.4432749306364245	0.40183237461289717	1.6364342993934864	0.46444426788009796	0.631361883131907	1.7720555743165725	0.37484205429855527	0.8902636848850456	1.3187761758809962	0.6185033750592224	1.3075405682133197	1.3991484338765856	0.6651036903690523	1.8460096214849318	2.0168372146713267	0.6365448631381738	0.7296470021909663	1.0244532603302368	0.2596835896386001	0.9397766172594455	1.0283181749498498	0.11008280208044391	1.1129317800835568	1.2119149467697246	-0.09584965397265288
194	3.2333333333333334	1.414205987891097	1.2598402063864371	0.42806899003139853	1.9213931379185416	1.2279832602051832	0.40381914229497207	2.201444121868663	0.9369620749248077	0.34051992099905054	2.4587924329892745	1.1360516027594982	0.32751946816472194	2.4321178143314532	1.1064856723000587	0.41360372448273325	2.17196959729598	0.8630681630908293	0.3302652674329651	1.3095176770821326	1.176092569127453	0.1817345842718379	1.8006661119208278	1.1306561208128587	0.13381465556600194	2.146067505073016	0.8944830553463856	0.15071841217433668	2.511390046632642	1.2779904170458916	0.1507944251296976	2.3764453646789185	1.0981561384713252	0.0989325898606276	2.0932885639966474	0.7280570484870926	0.17515153324088073	0.7515842218794985	1.3028750720324738	0.4442976504226105	0.3913699069164254	1.6482217800691017	0.4654133058308561	0.6213813236505559	1.8020853481759598	0.3709408425929339	0.8858957934271746	1.326027336498407	0.6211781992509326	1.2956520065216963	1.448378866798996	0.6763985357367636	1.8252275693575122	1.9505253543988081	0.6514797276776676	0.7294016584605032	1.0261107653319266	0.25932371886419003	0.9277022542512308	1.0294332067034573	0.11040691792774027	1.095446639578428	1.173890200556563	-0.1028779844525278
195	3.25	1.4107315321628973	1.2687668052641696	0.4274600994223267	1.9266226599518774	1.208901974931048	0.40574494707921327	2.188049304637348	0.9329747189604954	0.33895855444584216	2.4580342679730802	1.1344192671976163	0.32721039481436	2.4321720837987315	1.10651763966785	0.41340380469011484	2.1863218674054017	0.89220899655616	0.3367191067658235	1.306822524798107	1.17504089809626	0.1824548469317911	1.8140520793627604	1.16802591629934	0.14127093837025942	2.1604427432634017	0.9278751390081421	0.15712343240827223	2.5144112945240997	1.2905182149765377	0.1454378132671359	2.353640673413408	1.089763311503048	0.09934897464709647	2.1046195277834303	0.7573140960651039	0.18202010425277995	0.7422198439020192	1.3089005442004265	0.4452355469291713	0.3925910105593885	1.639233183326513	0.46526905616903036	0.6225954368429527	1.8064671172448548	0.3646055821556698	0.8838122870653858	1.3248398944998667	0.6100589575391935	1.2731619290479286	1.3860650942667851	0.6699513856727933	1.7876740846044634	1.9023314174200268	0.6556723060138586	0.720719498760324	1.0320435512687394	0.25873574800979887	0.9408243968753665	1.0492606575941603	0.10419607128876429	1.0922558764549533	1.189213710865009	-0.10623801356127703
